<svg width="37" height="21" viewBox="0 0 37 21" fill="none" xmlns="http://www.w3.org/2000/svg">
<path d="M17.7463 3.2675C17.6827 3.26801 17.6084 3.28965 17.5336 3.30767C17.3379 3.35566 16.0199 3.62888 15.3664 3.65103C14.7129 3.67687 14.6169 3.72487 14.628 3.86148C14.6391 3.99809 14.5541 4.11992 15.4033 4.11992C16.2525 4.11992 16.1787 4.95803 16.1787 4.95803V9.73928C15.4144 8.8901 14.3991 8.48397 13.1438 8.5172C10.6664 8.5172 8.65793 10.6291 8.65793 13.232C8.65793 15.8349 10.3563 17.9209 13.1438 17.9468C14.5283 17.9911 15.5953 17.3228 16.3522 16.3555C16.474 17.345 16.7583 17.9579 16.7583 17.9579C16.7583 17.9579 18.1724 17.5628 18.8 17.4041C19.4277 17.2453 19.4535 17.1715 19.4535 17.0238C19.4535 16.8761 19.0954 17.0201 18.4936 16.7986C17.8918 16.577 17.9287 15.5174 17.9287 15.5174V3.55504C17.9287 3.32428 17.8523 3.26657 17.7463 3.2675H17.7463ZM8.98948 8.52385C8.9528 8.5232 8.91612 8.52344 8.87946 8.52458C8.27026 8.54305 7.46539 9.01556 6.91158 9.36631C6.91158 9.36631 6.19155 8.75715 5.29437 8.56147H3.03489C3.03489 8.56147 0.295367 9.20024 0.295367 11.8475C0.295367 11.8475 0.251025 14.0184 2.46627 14.6719C2.46627 14.6719 0.631309 15.0596 0.675614 16.6361C0.697766 17.4225 1.16301 17.9025 2.19679 18.1572C2.19679 18.1572 2.72106 18.3049 3.5887 18.3677C4.45634 18.4305 5.63781 18.4489 6.247 18.5781C6.95588 18.7258 7.76076 19.2501 7.69799 20.295H9.01606C9.01606 20.295 9.1379 19.0323 8.84254 18.364C8.54717 17.692 7.67953 16.9905 6.4796 16.7986C5.27968 16.6066 2.98317 16.5881 2.70626 16.5844C2.42935 16.5807 1.67248 16.5364 1.67248 15.9309C1.67248 15.3291 2.51427 15.0928 3.00163 15.0928C3.48898 15.0928 5.3461 15.1482 6.37988 14.5205C7.18845 14.0295 7.83087 13.4757 7.94163 11.973C8.05239 10.4703 7.2106 9.70236 7.2106 9.70236C7.2106 9.70236 7.46535 9.44022 7.75703 9.33315C8.06347 9.22239 8.45852 9.27039 8.65051 9.45499C8.8425 9.6396 9.14156 9.97188 9.34462 9.99773C9.54769 10.0236 9.73967 10.0162 9.73967 10.0162V8.73503C9.73967 8.73503 9.51904 8.53382 8.98948 8.52385ZM4.14621 8.86426C5.30552 8.86426 6.24331 9.90912 6.24331 11.7552C6.24331 13.76 5.30552 14.6461 4.14621 14.6461C2.98689 14.6461 2.04911 13.723 2.04911 11.7552C2.04911 9.73559 2.98686 8.86426 4.14617 8.86426H4.14621ZM13.417 9.00825C14.9234 9.00825 16.2156 9.48084 16.1418 13.2431C16.2267 17.0459 14.8385 17.489 13.417 17.4779C11.4418 17.4668 10.6923 15.5839 10.6923 13.2431C10.6923 10.9023 11.6411 9.10793 13.417 9.00825ZM24.6853 9.42915C25.6932 9.79097 25.5677 11.109 25.5972 11.7552C25.6267 12.4013 25.2465 12.5748 25.0508 12.6597C24.8551 12.7446 22.614 13.5274 21.5359 14.1292C20.4578 14.731 19.8302 15.4657 19.8745 16.3813C19.9188 17.297 20.2511 18.1979 22.0602 18.2348C23.8693 18.2717 25.1911 17.0644 25.3166 16.9352C25.4422 16.8059 25.4569 16.9352 25.4569 16.9352C25.6785 17.5517 26.0477 18.2274 27.3399 18.2274C28.6321 18.2274 29.0013 17.1567 28.7576 17.057C28.5102 16.9573 28.6838 17.4151 27.8457 17.4151C27.0076 17.4151 27.0962 16.3555 27.0962 16.3555C27.0962 16.3555 27.1959 12.5416 27.1959 11.2863C27.1959 10.031 26.3836 9.42915 26.3836 9.42915H24.6853ZM20.8418 9.43653C20.8418 9.43653 20.144 9.9645 20.1588 10.6623C20.1773 11.4672 21.5507 11.5595 21.6541 10.8026C21.7612 10.0162 21.8091 9.67652 22.3851 9.43653H20.8418ZM25.5861 12.896C25.5861 12.896 25.4864 15.51 25.4716 15.9272C25.4568 16.3333 25.4642 16.4072 24.3824 17.0792C22.9868 17.9062 21.979 17.3782 21.7464 16.6324C21.5064 15.8497 21.7057 14.9562 22.5992 14.3212C23.4927 13.6861 25.5861 12.896 25.5861 12.896ZM1.48023 18.6452C1.28846 18.647 1.06971 18.6984 0.845413 18.8292C0.147609 19.239 0.0221525 20.0845 0 20.295H1.21839C1.27377 19.8482 1.76474 19.2907 2.0638 19.1024C2.28407 18.9592 1.97028 18.6404 1.48023 18.6451V18.6452ZM21.7648 0.294922V0.959498H22.4294V0.294922H21.7648ZM22.6287 1.16256V1.82714H23.2933V1.16256H22.6287ZM23.4779 1.16256V1.82714H24.1424V1.16256H23.4779ZM24.3271 1.16256V1.82714H24.9916V1.16256H24.3271ZM22.6287 2.02651V2.69109H23.2933V2.02651H22.6287ZM23.4779 2.02651V2.69109H24.1424V2.02651H23.4779ZM24.3271 2.02651V2.69109H24.9916V2.02651H24.3271ZM25.1762 2.02651V2.69109H25.8408V2.02651H25.1762ZM22.6287 2.88677V3.55134H23.2933V2.88677H22.6287ZM23.4779 2.88677V3.55134H24.1424V2.88677H23.4779ZM24.3271 2.88677V3.55134H24.9916V2.88677H24.3271ZM28.621 2.88677V3.55134H29.2856V2.88677H28.621ZM29.4702 2.88677V3.55134H30.1347V2.88677H29.4702ZM24.3271 3.75072V4.41529H24.9917V3.75072H24.3271ZM25.1763 3.75072V4.41529H25.8409V3.75072H25.1763ZM26.0255 3.75072V4.41529H26.6901V3.75072H26.0255ZM29.4702 4.58513V5.2497H30.1348V4.58513H29.4702ZM30.3194 4.58513V5.2497H30.9839V4.58513H30.3194ZM31.1722 4.58513V5.2497H31.8368V4.58513H31.1722ZM26.0255 4.61466V5.27924H26.6901V4.61466H26.0255ZM26.8747 4.61466V5.27924H27.5392V4.61466H26.8747ZM27.7681 5.44538V6.10996H28.4327V5.44538H27.7681ZM28.621 5.44538V6.10996H29.2856V5.44538H28.621ZM29.4702 5.44538V6.10996H30.1348V5.44538H29.4702ZM30.3194 5.44538V6.10996H30.9839V5.44538H30.3194ZM31.1722 5.44538V6.10996H31.8368V5.44538H31.1722ZM32.0251 5.44538V6.10996H32.6897V5.44538H32.0251ZM28.6173 6.30933V6.97391H29.2819V6.30933H28.6173ZM29.4702 6.30933V6.97391H30.1348V6.30933H29.4702ZM30.3194 6.30933V6.97391H30.9839V6.30933H30.3194ZM31.1686 6.30933V6.97391H31.8331V6.30933H31.1686ZM32.0214 6.30933V6.97391H32.686V6.30933H32.0214ZM32.8743 6.30933V6.97391H33.5389V6.30933H32.8743ZM33.7235 6.30933V6.97391H34.3881V6.30933H33.7235ZM28.6173 7.16959V7.83416H29.2819V7.16959H28.6173ZM29.4702 7.16959V7.83416H30.1348V7.16959H29.4702ZM30.3194 7.16959V7.83416H30.9839V7.16959H30.3194ZM31.1686 7.16959V7.83416H31.8331V7.16959H31.1686ZM32.0214 7.16959V7.83416H32.686V7.16959H32.0214ZM32.8743 7.16959V7.83416H33.5389V7.16959H32.8743ZM33.7235 7.16959V7.83416H34.3881V7.16959H33.7235ZM34.58 7.16959V7.83416H35.2446V7.16959H34.58ZM28.6173 8.03354V8.69811H29.2819V8.03354H28.6173ZM29.4702 8.03354V8.69811H30.1348V8.03354H29.4702ZM30.3194 8.03354V8.69811H30.9839V8.03354H30.3194ZM31.1686 8.03354V8.69811H31.8331V8.03354H31.1686ZM32.0214 8.03354V8.69811H32.686V8.03354H32.0214ZM32.8743 8.03354V8.69811H33.5389V8.03354H32.8743ZM33.7235 8.03354V8.69811H34.3881V8.03354H33.7235ZM34.58 8.03354V8.69811H35.2446V8.03354H34.58ZM35.4292 8.03354V8.69811H36.0938V8.03354H35.4292ZM36.2821 8.03354V8.69811H36.9467V8.03354H36.2821ZM28.6173 8.89749V9.56206H29.2819V8.89749H28.6173ZM29.4702 8.89749V9.56206H30.1348V8.89749H29.4702ZM30.3194 8.89749V9.56206H30.9839V8.89749H30.3194ZM31.1686 8.89749V9.56206H31.8331V8.89749H31.1686ZM32.0214 8.89749V9.56206H32.686V8.89749H32.0214ZM32.8743 8.89749V9.56206H33.5389V8.89749H32.8743ZM33.7235 8.89749V9.56206H34.3881V8.89749H33.7235ZM34.58 8.89749V9.56206H35.2446V8.89749H34.58ZM35.4292 8.89749V9.56206H36.0938V8.89749H35.4292ZM36.2821 8.89749V9.56206H36.9467V8.89749H36.2821ZM29.4739 9.76143V10.426H30.1385V9.76143H29.4739ZM30.3268 9.76143V10.426H30.9913V9.76143H30.3268ZM31.1759 9.76143V10.426H31.8405V9.76143H31.1759ZM32.0251 9.76143V10.426H32.6897V9.76143H32.0251ZM32.878 9.76143V10.426H33.5426V9.76143H32.878ZM33.7272 9.76143V10.426H34.3918V9.76143H33.7272ZM34.5801 9.76143V10.426H35.2446V9.76143H34.5801ZM35.4366 9.76143V10.426H36.1012V9.76143H35.4366ZM30.3231 10.6217V11.2863H30.9876V10.6217H30.3231ZM31.1759 10.6217V11.2863H31.8405V10.6217H31.1759ZM32.0251 10.6217V11.2863H32.6897V10.6217H32.0251ZM32.8743 10.6217V11.2863H33.5389V10.6217H32.8743ZM33.7272 10.6217V11.2863H34.3918V10.6217H33.7272ZM34.5764 10.6217V11.2863H35.241V10.6217H34.5764ZM35.4293 10.6217V11.2863H36.0938V10.6217H35.4293ZM30.3231 11.4856V12.1502H30.9876V11.4856H30.3231ZM31.1759 11.4856V12.1502H31.8405V11.4856H31.1759ZM32.0251 11.4856V12.1502H32.6897V11.4856H32.0251ZM32.8743 11.4856V12.1502H33.5389V11.4856H32.8743ZM33.7272 11.4856V12.1502H34.3918V11.4856H33.7272ZM30.3231 12.3496V13.0142H30.9876V12.3496H30.3231ZM31.1759 12.3496V13.0142H31.8405V12.3496H31.1759ZM32.0251 12.3496V13.0142H32.6897V12.3496H32.0251ZM32.8743 12.3496V13.0142H33.5389V12.3496H32.8743ZM33.7272 12.3496V13.0142H34.3918V12.3496H33.7272ZM30.3231 13.2135V13.8781H30.9876V13.2135H30.3231ZM31.1759 13.2135V13.8781H31.8405V13.2135H31.1759ZM32.0251 13.2135V13.8781H32.6897V13.2135H32.0251ZM32.8743 13.2135V13.8781H33.5389V13.2135H32.8743ZM30.3231 14.0775V14.7421H30.9876V14.0775H30.3231ZM31.1759 14.0775V14.7421H31.8405V14.0775H31.1759ZM32.0251 14.0775V14.7421H32.6897V14.0775H32.0251ZM30.3231 14.9377V15.6023H30.9876V14.9377H30.3231ZM31.1759 14.9377V15.6023H31.8405V14.9377H31.1759ZM30.3231 15.8017V16.4663H30.9876V15.8017H30.3231ZM31.1759 15.8017V16.4663H31.8405V15.8017H31.1759ZM30.3231 16.6656V17.3302H30.9876V16.6656H30.3231ZM30.3231 17.5259V18.1905H30.9876V17.5259H30.3231ZM31.1759 17.5259V18.1905H31.8405V17.5259H31.1759Z" fill="#5A5A5A"/>
</svg>
