<svg width="20" height="21" viewBox="0 0 20 21" fill="none" xmlns="http://www.w3.org/2000/svg">
<path fill-rule="evenodd" clip-rule="evenodd" d="M10 7.29492C8.34315 7.29492 7 8.63807 7 10.2949C7 11.9518 8.34315 13.2949 10 13.2949C11.6569 13.2949 13 11.9518 13 10.2949C13 8.63807 11.6569 7.29492 10 7.29492ZM10 5.29492C12.7614 5.29492 15 7.5335 15 10.2949C15 13.0563 12.7614 15.2949 10 15.2949C7.23858 15.2949 5 13.0563 5 10.2949C5 7.5335 7.23858 5.29492 10 5.29492ZM16.5 5.04492C16.5 5.73528 15.9404 6.29492 15.25 6.29492C14.5596 6.29492 14 5.73528 14 5.04492C14 4.35457 14.5596 3.79492 15.25 3.79492C15.9404 3.79492 16.5 4.35457 16.5 5.04492ZM10 2.29492C7.526 2.29492 7.122 2.30192 5.971 2.35292C5.187 2.38992 4.661 2.49492 4.173 2.68492C3.739 2.85292 3.426 3.05392 3.093 3.38792C2.78001 3.69032 2.53935 4.05951 2.389 4.46792C2.199 4.95792 2.094 5.48292 2.058 6.26592C2.006 7.36992 2 7.75592 2 10.2949C2 12.7689 2.007 13.1729 2.058 14.3239C2.095 15.1069 2.2 15.6339 2.389 16.1209C2.559 16.5559 2.759 16.8689 3.091 17.2009C3.428 17.5369 3.741 17.7379 4.171 17.9039C4.665 18.0949 5.191 18.2009 5.971 18.2369C7.075 18.2889 7.461 18.2949 10 18.2949C12.474 18.2949 12.878 18.2879 14.029 18.2369C14.811 18.1999 15.338 18.0949 15.826 17.9059C16.259 17.7369 16.574 17.5359 16.906 17.2039C17.243 16.8669 17.444 16.5539 17.61 16.1239C17.8 15.6309 17.906 15.1039 17.942 14.3239C17.994 13.2199 18 12.8339 18 10.2949C18 7.82092 17.993 7.41692 17.942 6.26592C17.905 5.48392 17.8 4.95592 17.61 4.46792C17.4593 4.05992 17.2191 3.69088 16.907 3.38792C16.6047 3.07477 16.2355 2.83409 15.827 2.68392C15.337 2.49392 14.811 2.38892 14.029 2.35292C12.925 2.30092 12.539 2.29492 10 2.29492ZM10 0.294922C12.717 0.294922 13.056 0.304922 14.122 0.354922C15.187 0.404922 15.912 0.571922 16.55 0.819922C17.21 1.07392 17.766 1.41792 18.322 1.97292C18.8305 2.47282 19.224 3.07751 19.475 3.74492C19.722 4.38192 19.89 5.10792 19.94 6.17292C19.987 7.23892 20 7.57792 20 10.2949C20 13.0119 19.99 13.3509 19.94 14.4169C19.89 15.4819 19.722 16.2069 19.475 16.8449C19.2247 17.5127 18.8311 18.1175 18.322 18.6169C17.822 19.1252 17.2173 19.5187 16.55 19.7699C15.913 20.0169 15.187 20.1849 14.122 20.2349C13.056 20.2819 12.717 20.2949 10 20.2949C7.283 20.2949 6.944 20.2849 5.878 20.2349C4.813 20.1849 4.088 20.0169 3.45 19.7699C2.78233 19.5194 2.17753 19.1259 1.678 18.6169C1.16941 18.1171 0.775931 17.5124 0.525 16.8449C0.277 16.2079 0.11 15.4819 0.06 14.4169C0.013 13.3509 0 13.0119 0 10.2949C0 7.57792 0.01 7.23892 0.06 6.17292C0.11 5.10692 0.277 4.38292 0.525 3.74492C0.775236 3.0771 1.1688 2.47224 1.678 1.97292C2.17767 1.46415 2.78243 1.07065 3.45 0.819922C4.088 0.571922 4.812 0.404922 5.878 0.354922C6.944 0.307922 7.283 0.294922 10 0.294922Z" fill="#272727"/>
</svg>
