<svg width="12" height="12" viewBox="0 0 12 12" fill="none" xmlns="http://www.w3.org/2000/svg">
<path fill-rule="evenodd" clip-rule="evenodd" d="M0 1.33366C0 0.965469 0.298477 0.666992 0.666667 0.666992H11.3333C11.7015 0.666992 12 0.965469 12 1.33366C12 1.70185 11.7015 2.00033 11.3333 2.00033H0.666667C0.298477 2.00033 0 1.70185 0 1.33366ZM0 6.00033C0 5.63214 0.298477 5.33366 0.666667 5.33366H11.3333C11.7015 5.33366 12 5.63214 12 6.00033C12 6.36852 11.7015 6.66699 11.3333 6.66699H0.666667C0.298477 6.66699 0 6.36852 0 6.00033ZM0 10.667C0 10.2988 0.298477 10.0003 0.666666 10.0003H11.3333C11.7015 10.0003 12 10.2988 12 10.667C12 11.0352 11.7015 11.3337 11.3333 11.3337H0.666666C0.298477 11.3337 0 11.0352 0 10.667Z" fill="#272727"/>
</svg>
