<svg width="22" height="18" viewBox="0 0 22 18" fill="none" xmlns="http://www.w3.org/2000/svg">
<path fill-rule="evenodd" clip-rule="evenodd" d="M21.1621 2.95099C20.3986 3.28868 19.589 3.51046 18.7601 3.60899C19.6338 3.08642 20.2878 2.264 20.6001 1.29499C19.7801 1.78299 18.8811 2.12499 17.9441 2.30999C16.6499 0.925309 14.5863 0.584078 12.9153 1.47844C11.2443 2.37281 10.3837 4.27913 10.8181 6.12399C7.45507 5.95543 4.3218 4.36698 2.19805 1.75399C1.82634 2.39244 1.63101 3.11822 1.63205 3.85699C1.63205 5.30699 2.37005 6.58799 3.49205 7.33799C2.82806 7.31709 2.17869 7.13777 1.59805 6.81499V6.86699C1.59847 8.85803 3.00157 10.5731 4.95305 10.968C4.33667 11.135 3.69036 11.1596 3.06305 11.04C3.61018 12.7442 5.1805 13.9118 6.97005 13.945C5.21799 15.321 2.99079 15.9441 0.779053 15.677C2.69075 16.9064 4.91615 17.5591 7.18905 17.557C14.8821 17.557 19.0891 11.184 19.0891 5.65699C19.0891 5.47699 19.0841 5.29499 19.0761 5.11699C19.8949 4.52516 20.6017 3.79201 21.1631 2.95199L21.1621 2.95099Z" fill="#272727"/>
</svg>
