<svg width="23" height="20" viewBox="0 0 23 20" fill="none" xmlns="http://www.w3.org/2000/svg">
<path d="M9.65079 4.06026C10.0565 3.28768 10.6135 2.60469 11.2888 2.05201C11.9641 1.49933 12.7437 1.08827 13.5812 0.843336C14.4188 0.598407 15.297 0.524621 16.1637 0.626378C17.0303 0.728136 17.8676 1.00335 18.6256 1.43562C19.3837 1.86789 20.0469 2.44836 20.5758 3.14243C21.1046 3.83649 21.4883 4.62994 21.704 5.47548C21.9197 6.32101 21.9629 7.20131 21.8311 8.06391C21.6993 8.9265 21.3951 9.75372 20.9368 10.4963C21.7389 11.2516 22.2956 12.2305 22.5349 13.306C22.7741 14.3815 22.6848 15.5041 22.2786 16.5282C21.8723 17.5524 21.1678 18.4309 20.2564 19.05C19.3449 19.6691 18.2686 20.0001 17.1668 20.0003L8.66679 19.9993C7.57521 19.9984 6.49535 19.7742 5.49366 19.3404C4.49197 18.9066 3.58966 18.2724 2.84226 17.4769C2.09485 16.6813 1.51816 15.7412 1.14769 14.7144C0.777217 13.6876 0.620795 12.5959 0.688052 11.5063C0.755309 10.4168 1.04482 9.35262 1.53877 8.37919C2.03272 7.40577 2.72066 6.54372 3.56024 5.84612C4.39982 5.14851 5.37329 4.63011 6.42072 4.32281C7.46815 4.01551 8.5674 3.92682 9.65079 4.06026ZM11.7218 4.60426C12.7206 5.01829 13.6255 5.62987 14.3821 6.40229C15.1388 7.17472 15.7315 8.09206 16.1248 9.09926C17.1726 8.89842 18.2562 9.00504 19.2448 9.40626C19.7083 8.41702 19.7962 7.29292 19.492 6.24367C19.1878 5.19442 18.5122 4.29166 17.5914 3.70381C16.6706 3.11596 15.5674 2.88317 14.4875 3.04885C13.4077 3.21453 12.424 3.76738 11.7218 4.60426ZM17.1668 18.0003C17.7438 18.0002 18.3119 17.8574 18.8204 17.5847C19.3289 17.312 19.7622 16.9178 20.0815 16.4372C20.4008 15.9565 20.5964 15.4044 20.6507 14.8299C20.7051 14.2555 20.6166 13.6765 20.393 13.1445C20.1695 12.6125 19.8179 12.144 19.3696 11.7808C18.9212 11.4175 18.39 11.1708 17.8232 11.0625C17.2564 10.9542 16.6717 10.9877 16.121 11.16C15.5862 11.3274 15.0996 11.6206 14.702 12.0148C14.6891 12.0277 14.6668 12.0185 14.6668 12.0003C14.6668 10.8136 14.3149 9.65353 13.6556 8.66684C12.9963 7.68014 12.0592 6.91111 10.9629 6.45698C9.86654 6.00286 8.66013 5.88404 7.49625 6.11555C6.33236 6.34706 5.26327 6.9185 4.42415 7.75762C3.58503 8.59673 3.01359 9.66583 2.78208 10.8297C2.55057 11.9936 2.66939 13.2 3.12351 14.2964C3.57764 15.3927 4.34667 16.3298 5.33337 16.9891C6.32006 17.6484 7.4801 18.0003 8.66679 18.0003H17.1668Z" fill="#272727"/>
</svg>
