<svg width="141" height="25" viewBox="0 0 141 25" fill="none" xmlns="http://www.w3.org/2000/svg">
<path d="M33.7363 3.22583H34.0927V21.2416H33.7363V3.22583Z" fill="#7267C3"/>
<path d="M0 18.5376V18.0241H1.97031C2.06463 18.0241 2.12751 17.9507 2.12751 17.8669V7.22932C2.12751 7.13499 2.05415 7.07211 1.97031 7.07211H0V6.5481H8.21659V7.06163H6.0262C5.93188 7.06163 5.869 7.135 5.869 7.21884V17.8564C5.869 17.9402 5.94236 18.0136 6.0262 18.0136H6.53974C10.0507 18.0136 11.759 16.8084 11.759 14.314V13.9682H12.4926V18.5481H0V18.5376Z" fill="#7267C3"/>
<path d="M25.6559 18.5376L16.4647 8.66513C16.4332 8.63369 16.3913 8.61272 16.3494 8.61272H16.297C16.2027 8.61272 16.1398 8.68609 16.1398 8.76993V16.6931C16.1398 17.9298 16.9887 18.0241 18.1835 18.0241H18.414V18.5376H13.4778V18.0241H13.9389C14.6306 18.0241 15.5529 17.8774 15.5529 16.5988V8.61272C15.5529 7.65901 14.6201 7.07211 13.7503 7.07211H13.5511V6.5481H19.483L26.2428 13.7795C26.2743 13.811 26.3162 13.8319 26.3581 13.8319H26.4105C26.5049 13.8319 26.5677 13.7586 26.5677 13.6747V8.40312C26.5677 7.16644 25.7188 7.07211 24.5241 7.07211H24.2935V6.5481H29.2507V7.06163H28.7686C28.3704 7.06163 27.1756 7.06163 27.1756 8.48696V18.5376H25.6559Z" fill="#7267C3"/>
<path d="M48.3774 12.8574C48.3774 10.2897 47.256 9.47222 45.8516 9.47222C45.2228 9.47222 44.4997 9.66087 44.1014 9.91239V16.1901C44.5206 16.3054 45.1075 16.3997 45.6001 16.3997C47.4446 16.4102 48.3774 15.0792 48.3774 12.8574ZM40.1398 18.6216V3.74995H38.8088V1.23466L43.8499 0.972656L44.1119 1.20322V7.83729C45.0237 7.1875 46.2184 6.62156 47.518 6.62156C50.9765 6.62156 52.5171 9.18925 52.5171 12.4382C52.5171 16.9657 49.2997 19.2085 45.4639 19.2085C43.4307 19.2085 41.5861 18.9989 40.1398 18.6216Z" fill="#7267C3"/>
<path d="M53.9842 3.54032C53.9842 2.11499 54.5187 1.39185 56.0908 1.39185C57.7991 1.39185 58.2183 2.34556 58.2183 3.54032C58.2183 4.73508 57.841 5.64687 56.0908 5.64687C54.4034 5.64687 53.9842 4.73508 53.9842 3.54032ZM52.9152 16.4731L54.11 16.3787V9.45123L52.8733 9.43027V6.97787L57.7257 6.76826L58.0715 7.0722V16.4835H59.3606V18.9569H52.9152V16.4731Z" fill="#7267C3"/>
<path d="M67.6192 11.6629C67.6192 10.0699 66.9904 9.07423 65.7537 9.07423C64.559 9.07423 63.8149 9.91266 63.7415 11.7362L67.6192 11.6629ZM59.5703 12.9729C59.5703 9.26287 61.8341 6.62183 65.7537 6.62183C69.5581 6.62183 71.3817 9.32576 71.3817 12.4384V13.6541H63.7939C63.8358 15.593 65.1983 16.3161 66.8542 16.3161C68.5101 16.3161 69.4952 16.0856 70.4699 15.876L71.0044 18.4437C69.7153 18.9362 67.6926 19.2611 66.1205 19.2611C61.5511 19.2506 59.5703 17.0393 59.5703 12.9729Z" fill="#7267C3"/>
<path d="M71.8009 16.4732L72.9957 16.3789V9.45138L71.759 9.43042V6.94658L76.3075 6.75793L76.5695 6.96754L76.7582 8.39287C78.2254 7.32387 79.5145 6.68457 80.9608 6.68457C83.6961 6.68457 84.7232 8.36143 84.7232 10.3527V16.4732H85.918V18.9466H79.5878V16.4732L80.7512 16.3789V11.1282C80.7512 9.53523 79.5145 9.30466 78.9485 9.30466C78.0368 9.30466 77.387 9.65051 76.9678 9.91252V16.4732H78.2254V18.9466H71.8009V16.4732Z" fill="#7267C3"/>
<path d="M94.1241 11.6629C94.1241 10.0699 93.4953 9.07423 92.2586 9.07423C91.0638 9.07423 90.3197 9.91266 90.2464 11.7362L94.1241 11.6629ZM86.0752 12.9729C86.0752 9.26287 88.339 6.62183 92.2586 6.62183C96.063 6.62183 97.8866 9.32576 97.8866 12.4384V13.6541H90.2988C90.3407 15.593 91.7031 16.3161 93.359 16.3161C95.0149 16.3161 96.0001 16.0856 96.9748 15.876L97.5093 18.4437C96.2202 18.9362 94.1975 19.2611 92.6254 19.2611C88.056 19.2506 86.0752 17.0393 86.0752 12.9729Z" fill="#7267C3"/>
<path d="M98.4 18.5275L98.3057 15.352H101.859L101.974 16.5467C102.351 16.683 102.959 16.7354 103.399 16.7354C104.384 16.7354 105.317 16.4524 105.317 15.7083C105.317 14.9118 104.405 14.6812 103.357 14.3982L102.047 14.0734C99.4585 13.3712 98.4 12.4175 98.4 10.5729C98.4 8.56069 99.6157 6.62183 104.217 6.62183C105.128 6.62183 107.486 6.81047 108.681 7.48122L108.702 10.4052H105.485L105.348 9.26287C104.814 9.09519 104.321 9.05327 103.829 9.05327C102.823 9.05327 102.1 9.37816 102.1 9.98602C102.1 10.6672 103.085 10.9188 104.248 11.2227L105.411 11.5476C108.304 12.3441 109.195 13.8113 109.195 15.2367C109.195 17.7834 106.952 19.2506 103.452 19.2506C101.502 19.2506 100.014 19.0201 98.4 18.5275Z" fill="#7267C3"/>
<path d="M131.172 9.45126L129.527 9.4303V6.94646L134.075 6.75781L134.337 6.96742L134.526 8.43467C136.045 7.21895 137.89 6.77877 139.106 6.77877C139.546 6.77877 140.206 6.79973 140.646 6.8731V11.0024H136.978V9.53511C136.255 9.55607 135.479 9.76567 134.735 10.2792V16.4626H136.58V18.936H131.183" fill="#7267C3"/>
<path d="M116.646 16.1166C116.416 16.1376 116.196 16.148 116.07 16.148C115.179 16.148 114.508 15.8441 114.508 14.7437V9.54541H117.432V6.92533H114.508V4.05371H111.867L110.578 6.831L108.943 7.08253V9.53493H110.526V15.0686C110.526 17.4476 111.626 19.1978 114.498 19.1978C115.64 19.1978 116.814 19.0301 117.632 18.7996V18.7472C117.17 18.0135 116.835 17.1122 116.646 16.1166Z" fill="#7267C3"/>
<path d="M130.501 22.5098L129.883 23.212C128.175 21.7657 125.544 21.598 123.438 21.8914C121.09 22.2163 118.837 23.1176 117.632 24.9727L116.887 24.501C117.852 22.143 120.556 20.4871 123.291 20.1098C125.974 19.722 128.908 20.6443 130.501 22.5098Z" fill="#7267C3"/>
<path d="M124.014 15.2782L124.664 9.32539C124.454 9.25203 124.224 9.23107 124.014 9.23107C121.656 9.23107 121.163 12.3123 121.163 14.597C121.163 15.5298 121.394 16.5359 122.285 16.5359C122.84 16.5359 123.521 16.0223 124.014 15.2782ZM133.488 11.0966C133.488 16.0014 131.413 19.2188 127.818 19.2188C126.414 19.2188 125.083 18.7787 124.528 17.0704C123.427 18.611 121.824 19.3132 120.744 19.3132C118.732 19.3132 117.432 17.4477 117.432 14.6704C117.432 10.887 119.067 6.5481 124.203 6.5481C125.817 6.5481 127.546 6.8101 128.405 7.15596L127.588 15.1001C127.567 15.1944 127.567 15.6346 127.567 15.7498C127.567 16.5673 127.797 17.1961 128.804 17.1961C130.816 17.1961 132.241 14.3664 132.241 10.9394" fill="#7267C3"/>
</svg>
