<svg width="132" height="25" viewBox="0 0 132 25" fill="none" xmlns="http://www.w3.org/2000/svg">
<g clip-path="url(#clip0_2208_14537)">
<path d="M37.5543 2.61353H37.1614V22.4537H37.5543V2.61353Z" fill="#00C48F"/>
<path d="M0 19.484V18.9178H2.16081C2.2648 18.9178 2.33414 18.8369 2.33414 18.7444V7.01598C2.33414 6.91198 2.25325 6.83109 2.16081 6.83109H0V6.26489H9.04766V6.83109H6.63264C6.52865 6.83109 6.45932 6.91198 6.45932 7.01598V18.7329C6.45932 18.8369 6.5402 18.9062 6.63264 18.9062H7.18729C11.0583 18.9062 12.9302 17.5774 12.9302 14.8388V14.4459H13.739V19.484H0Z" fill="#00C48F"/>
<path d="M28.2523 19.484L18.13 8.62214C18.0953 8.58747 18.0491 8.56436 18.0029 8.56436H17.9335C17.8295 8.56436 17.7602 8.64525 17.7602 8.73769V17.4503C17.7602 18.8138 18.6962 18.9178 20.0134 18.9178H20.2677V19.484H14.8252V18.9178H15.3336C16.0963 18.9178 17.1016 18.756 17.1016 17.3578V8.54125C17.1016 7.48974 16.0731 6.84265 15.1141 6.84265H14.8945V6.27645H21.4347L28.8878 14.2379C28.9225 14.2726 28.9687 14.2957 29.0149 14.2957H29.0842C29.1882 14.2957 29.2575 14.2148 29.2575 14.1108V8.2986C29.2575 6.93509 28.3216 6.83109 27.0043 6.83109H26.7501V6.26489H32.2041V6.83109H31.6726C31.2335 6.83109 29.9162 6.83109 29.9162 8.39104V19.4724L28.2523 19.484Z" fill="#00C48F"/>
<path d="M43.4126 12.9092C43.4126 8.66842 46.2552 5.97607 51.039 5.97607C52.1945 5.97607 54.1242 6.12629 55.3375 6.56539L55.3606 10.783H52.414L52.1598 9.11907C51.7785 9.06129 51.3856 9.03818 51.0043 9.04974C49.1671 9.04974 47.9191 10.367 47.9191 12.6665C47.9191 15.278 49.1671 16.6183 51.4087 16.6183C52.5874 16.5721 53.766 16.4219 54.9331 16.1793L55.3722 19.1489C53.8238 19.6111 52.2292 19.8653 50.6114 19.9C45.9201 19.9231 43.4126 17.4388 43.4126 12.9092Z" fill="#00C48F"/>
<path d="M55.9846 16.0058C55.9846 12.4583 60.2022 11.7881 64.0039 11.7073V10.8637C64.0039 9.75444 63.3106 9.17668 61.8777 9.17668C60.364 9.21135 58.8734 9.48867 57.4521 10.0087L56.597 6.98121C58.1223 6.3919 60.2138 5.99902 62.9408 5.99902C65.9105 5.99902 68.4526 7.14298 68.4526 10.9215V15.0351L68.5797 16.9764L69.2961 16.9995V19.4839L65.5292 19.7727H64.651L64.4199 17.9124C63.5417 19.091 61.7044 19.923 60.0867 19.923C57.2557 19.923 55.9846 18.3399 55.9846 16.0058ZM64.0154 16.3178V13.7294C61.6813 13.7294 60.468 14.3534 60.468 15.6244C60.468 16.78 61.2769 17.1266 62.0973 17.1266C62.8137 17.1266 63.4955 16.8262 64.0154 16.3178Z" fill="#00C48F"/>
<path d="M70.1166 16.8955L71.4339 16.7915V9.0958L70.0588 9.07269V6.33412L75.1084 6.11458L75.3973 6.34568L75.6053 7.92873C77.2346 6.73855 78.6559 6.03369 80.262 6.03369C82.2842 6.03369 83.4397 6.88877 84.0059 8.07895C85.7738 6.70389 87.2644 6.03369 88.8359 6.03369C91.8634 6.03369 93.0073 7.89407 93.0073 10.1011V16.884H94.3246V19.6225H87.3106V16.884L88.6048 16.7568V10.9677C88.6048 9.1998 87.2298 8.94558 86.6173 8.94558C85.8085 8.93403 84.9996 9.18824 84.341 9.662C84.4103 10.0318 84.4334 10.4246 84.4219 10.806V16.884H85.7391V19.6225H78.7252V16.884L80.0194 16.7568V10.91C79.9962 9.1998 78.6443 8.94558 78.0319 8.94558C77.2461 8.95714 76.4835 9.18824 75.8248 9.62734V16.9071H77.223V19.6456H70.1051V16.8955H70.1166Z" fill="#00C48F"/>
<path d="M94.6479 22.2456L95.919 22.1416V9.10744L94.5439 9.08433V6.33421L99.5935 6.12621L99.8824 6.35732L100.033 7.47816C101.015 6.79641 102.679 6.02222 104.296 6.02222C108.214 6.02222 109.646 9.01499 109.646 12.4122C109.646 16.7685 107.22 19.9115 102.817 19.9115C101.962 19.8884 101.13 19.7613 100.298 19.5302V22.2456H102.321V24.9842H94.6364V22.2456H94.6479ZM105.071 13.0015C105.071 10.4594 104.377 9.1421 102.274 9.1421C101.593 9.1421 100.922 9.30387 100.31 9.60431V16.4334C100.899 16.7107 101.535 16.8378 102.17 16.8032C104.4 16.8147 105.071 14.9197 105.071 13.0015Z" fill="#00C48F"/>
<path d="M110.352 13.2211C110.352 8.89952 112.709 5.97607 117.47 5.97607C121.976 5.97607 124.564 8.56442 124.564 12.7358C124.564 17.2423 121.895 19.9809 117.238 19.9809C112.743 19.9693 110.352 17.5196 110.352 13.2211ZM120.012 12.9554C120.012 10.159 119.133 8.96885 117.458 8.96885C115.91 8.96885 114.939 10.1128 114.939 12.9554C114.939 16.0059 115.794 16.9997 117.458 16.9997C119.11 16.9997 120.012 15.8788 120.012 12.9554Z" fill="#00C48F"/>
<path d="M125.304 7.70926C125.581 7.08529 125.801 6.64619 125.985 6.32265C126.297 5.56001 126.921 4.98225 127.707 4.75115C128.273 4.5316 128.863 4.36983 129.464 4.21961C130.307 4.01162 131.093 3.86141 131.301 3.81519C131.243 4.01162 130.943 4.7396 130.584 5.56001C130.353 6.06844 130.145 6.49598 129.972 6.84263C129.833 7.14306 129.637 7.40883 129.417 7.63993C129.417 7.63993 129.417 7.63993 129.406 7.65149C129.198 7.89415 128.955 8.10214 128.678 8.26391C128.412 8.42568 128.123 8.56434 127.823 8.64523C127.453 8.77234 126.991 8.89944 126.448 9.02655C125.593 9.2461 124.807 9.39631 124.599 9.43098C124.645 9.2461 124.946 8.50657 125.304 7.70926Z" fill="#00C48F"/>
<path d="M123.871 6.23024C123.617 5.8027 123.455 5.4676 123.339 5.22494C123.016 4.71652 122.946 4.09254 123.143 3.51478C123.258 3.08724 123.409 2.6597 123.582 2.24372C123.825 1.65441 124.067 1.12287 124.137 0.972656C124.229 1.09976 124.541 1.58508 124.865 2.15128C125.073 2.49793 125.234 2.82148 125.362 3.07569C125.477 3.28368 125.558 3.51478 125.604 3.75744C125.662 3.98854 125.674 4.21965 125.65 4.4623C125.627 4.69341 125.581 4.92451 125.5 5.14406C125.419 5.42138 125.292 5.74492 125.142 6.12624C124.899 6.72711 124.657 7.25865 124.576 7.39731C124.518 7.2702 124.194 6.78489 123.871 6.23024Z" fill="#00C48F"/>
</g>
<defs>
<clipPath id="clip0_2208_14537">
<rect width="131.289" height="24" fill="white" transform="translate(0 0.972656)"/>
</clipPath>
</defs>
</svg>
