<svg width="174" height="25" viewBox="0 0 174 25" fill="none" xmlns="http://www.w3.org/2000/svg">
<path d="M0 21.8184V21.2147H2.3039C2.40246 21.2147 2.48871 21.1285 2.48871 21.0299V8.59868C2.48871 8.50012 2.40246 8.41388 2.3039 8.41388H0V7.81018H9.59754V8.41388H7.03491C6.93635 8.41388 6.8501 8.50012 6.8501 8.59868V21.0299C6.8501 21.1285 6.93635 21.2147 7.03491 21.2147H7.62628C11.729 21.2147 13.7125 19.7979 13.7125 16.9026V16.4837H14.5626V21.8307H0V21.8184Z" fill="#F26330"/>
<path d="M29.9631 21.8184L19.2321 10.2866C19.1952 10.2496 19.1459 10.225 19.0966 10.225H19.035C18.9364 10.225 18.8502 10.3112 18.8502 10.4098V19.65C18.8502 21.0915 19.8358 21.2024 21.2403 21.2024H21.5114V21.8061H15.7332V21.2024H16.2752C17.0884 21.2024 18.1603 21.0299 18.1603 19.5391V10.2126C18.1603 9.10381 17.0638 8.41388 16.0535 8.41388H15.8194V7.81018H22.7557L30.6531 16.2496C30.69 16.2866 30.7393 16.3112 30.7886 16.3112H30.8502C30.9488 16.3112 31.035 16.225 31.035 16.1264V9.97856C31.035 8.53708 30.0494 8.4262 28.6449 8.4262H28.3738V7.81018H34.1644V8.41388H33.61C33.1541 8.41388 31.7496 8.41388 31.7496 10.0771V21.8184H29.9631Z" fill="#F26330"/>
<path d="M39.4126 3.92944H39.8315V24.9726H39.4126V3.92944Z" fill="#F26330"/>
<path d="M86.9938 10.9523L85.4661 10.8167V7.84753H93.3511V10.8167H91.8234L94.2258 16.8167L94.5215 17.7161H94.5831L94.8542 16.8167L97.2566 10.8167H95.7289V7.84753H107.864L102.813 10.8167L101.285 10.9769L96.271 22.0529H91.885L86.9938 10.9523Z" fill="#F26330"/>
<path d="M103.86 3.97868C103.86 2.31543 104.489 1.46533 106.312 1.46533C108.308 1.46533 108.789 2.58648 108.789 3.97868C108.789 5.37088 108.357 6.43042 106.312 6.43042C104.341 6.43042 103.86 5.35856 103.86 3.97868ZM102.604 19.0834L103.996 18.9725V10.8781L102.554 10.8534V7.98279L108.222 7.73638L108.628 8.09367V19.0834H110.131V21.9787H102.604V19.0834Z" fill="#F26330"/>
<path d="M110.624 19.0835L111.979 18.9727V4.2129H110.452V1.26834L116.353 0.972656L116.649 1.2437V19.0835H118.115V21.9788H110.624V19.0835Z" fill="#F26330"/>
<path d="M119.951 3.97868C119.951 2.31543 120.579 1.46533 122.402 1.46533C124.398 1.46533 124.879 2.58648 124.879 3.97868C124.879 5.37088 124.448 6.43042 122.402 6.43042C120.444 6.43042 119.951 5.35856 119.951 3.97868ZM118.694 19.0834L120.086 18.9725V10.8781L118.645 10.8534V7.98279L124.324 7.73638L124.731 8.09367V19.0834H126.234V21.9787H118.706V19.0834H118.694Z" fill="#F26330"/>
<path d="M136.337 18.4306V10.8782C135.869 10.718 135.24 10.5825 134.403 10.5825C132.222 10.5825 131.298 12.1349 131.298 14.562C131.298 17.0753 131.766 18.9234 134.267 18.9234C135.08 18.9234 135.733 18.7016 136.337 18.4306ZM126.468 15.215C126.468 10.6811 129.056 7.60099 133.7 7.60099C134.242 7.60099 135.45 7.65027 136.349 7.89668V4.2129L134.6 4.18826V1.2437L140.698 0.972656L140.969 1.2437V19.1082H142.472V21.9419L137.347 22.2745L137.125 22.1143L136.768 20.4265C135.869 21.4614 133.959 22.3115 132.234 22.3115C128.132 22.2991 126.468 18.8987 126.468 15.215Z" fill="#F26330"/>
<path d="M151.454 18.4797V15.7569C149.002 15.7569 147.721 16.4099 147.721 17.7528C147.721 18.9848 148.571 19.3298 149.433 19.3298C150.246 19.3298 151.01 18.9479 151.454 18.4797ZM143.002 18.1594C143.002 14.4263 147.45 13.7117 151.454 13.6378V12.7261C151.454 11.5557 150.714 10.952 149.211 10.952C147.684 10.952 146.045 11.3092 144.542 11.8267L143.618 8.63574C145.232 8.0074 147.437 7.60083 150.296 7.60083C153.437 7.60083 156.111 8.7959 156.111 12.7877V17.1244L156.246 19.1696H157.663V21.7938L153.031 22.1265H152.107L151.86 20.1676C150.936 21.4242 149.002 22.299 147.302 22.299C144.333 22.2743 143.002 20.6111 143.002 18.1594Z" fill="#F26330"/>
<path d="M167.532 18.4306V10.8782C167.064 10.718 166.435 10.5825 165.597 10.5825C163.417 10.5825 162.493 12.1349 162.493 14.562C162.493 17.0753 162.961 18.9234 165.462 18.9234C166.275 18.9234 166.928 18.7016 167.532 18.4306ZM157.651 15.215C157.651 10.6811 160.238 7.60099 164.883 7.60099C165.425 7.60099 166.632 7.65027 167.532 7.89668V4.2129L165.782 4.18826V1.2437L171.893 0.972656L172.164 1.2437V19.1082H173.667V21.9419L168.542 22.2745L168.32 22.1143L167.963 20.4265C167.064 21.4614 165.154 22.3115 163.441 22.3115C159.314 22.2991 157.651 18.8987 157.651 15.215Z" fill="#F26330"/>
<path d="M79.2073 17.174C81.6837 15.5724 82.2258 14.1063 81.2648 12.6155C80.3777 11.248 78.8131 11.0508 76.2997 12.6894C73.6016 14.4389 73.2196 15.7695 74.1683 17.2233C75.117 18.7018 76.62 18.8619 79.2073 17.174ZM73.4291 8.78389C77.2484 6.29518 81.1909 6.70175 83.926 10.9153C86.5133 14.8948 85.7125 18.6771 82.0287 21.0673C78.0492 23.6545 74.0821 22.8783 71.4085 18.751C68.8213 14.7716 69.6344 11.2603 73.4291 8.78389Z" fill="#F26330"/>
<path d="M64.1273 19.0834V21.9787H70.2505C68.8953 20.4263 67.9959 18.4674 67.7864 16.2374C67.5647 13.7734 68.2176 11.3955 69.4866 9.42427C68.8337 8.36473 67.6386 7.65015 65.7413 7.65015C64.078 7.65015 62.501 8.36473 60.6406 9.8062C60.037 8.54953 58.8172 7.65015 56.6858 7.65015C54.9979 7.65015 53.4949 8.38937 51.77 9.64604L51.5482 7.9828L51.2526 7.73639L45.9302 7.95815V10.8534L47.3717 10.8781V18.9848L45.9795 19.0957V21.991H53.4825V19.0834H52.0041V11.4202C52.4969 11.1245 53.2608 10.7056 54.3203 10.7056C54.9733 10.7056 56.3901 10.9766 56.4148 12.7754V18.9356L55.0472 19.0711V21.9664H62.4394V19.0834H61.0719V12.6768C61.0719 12.2703 61.0719 11.8637 60.9856 11.4818C61.5031 11.0752 62.3778 10.7179 63.3881 10.7179C64.0411 10.7179 65.4825 10.989 65.4825 12.8493V18.9602L64.1273 19.0834Z" fill="#F26330"/>
</svg>
