<svg width="166" height="23" viewBox="0 0 166 23" fill="none" xmlns="http://www.w3.org/2000/svg">
<path d="M32.4504 3.72266H32.0837V20.7728H32.4504V3.72266Z" fill="#0250C9"/>
<path d="M0 18.2061V17.7191H1.87785C1.965 17.7191 2.02839 17.6484 2.02839 17.5699V7.4835C2.02839 7.39709 1.95708 7.32639 1.87785 7.32639H0V6.83936H7.85209V7.32639H5.75239C5.66523 7.32639 5.59392 7.39709 5.59392 7.4835V17.562C5.59392 17.6484 5.66523 17.7112 5.75239 17.7112H6.23571C9.58731 17.7112 11.2195 16.5644 11.2195 14.2077V13.8621H11.9168V18.1983H0V18.2061Z" fill="#0250C9"/>
<path d="M24.4384 18.1983L15.6854 8.85034C15.6538 8.81892 15.6143 8.80321 15.5748 8.80321H15.5195C15.4326 8.80321 15.3615 8.87391 15.3615 8.96032V16.4544C15.3615 17.6248 16.1672 17.7191 17.3127 17.7191H17.5339V18.2061H12.8335V17.7191H13.2759C13.9395 17.7191 14.8164 17.5777 14.8164 16.3758V8.7875C14.8164 7.88413 13.9237 7.32639 13.1021 7.32639H12.9125V6.83936H18.5688L25.0072 13.6893C25.0388 13.7207 25.0783 13.7364 25.1178 13.7364H25.1731C25.26 13.7364 25.3232 13.6657 25.3232 13.5793V8.59111C25.3232 7.42066 24.5174 7.32639 23.3719 7.32639H23.1429V6.83936H27.867V7.32639H27.4088C27.0296 7.32639 25.892 7.32639 25.892 8.66967V18.1983H24.4384Z" fill="#0250C9"/>
<path d="M65.3375 5.3727L67.7871 2.71563L70.2758 5.3727L71.5006 4.62903L68.6843 0.972656H66.8978L64.1672 4.62903L65.3375 5.3727Z" fill="#0250C9"/>
<path d="M37.4872 22.9726H44.1101V20.6146H42.3735V18.2802C43.0444 18.501 44.0706 18.6115 44.5363 18.6115C48.3253 18.6115 50.4172 15.8986 50.4172 12.1525C50.4172 9.23459 49.17 6.65576 45.8072 6.65576C44.4022 6.65576 42.9734 7.3261 42.1287 7.9018L41.9946 6.94756L41.7498 6.7504L37.4004 6.93178V9.2898L38.5845 9.31346V20.5357L37.4951 20.6225V22.9726H37.4872ZM43.9759 15.938C43.3049 15.938 42.776 15.8512 42.3735 15.6225V9.74721C42.9102 9.50273 43.4233 9.345 44.0706 9.345C45.8783 9.345 46.4782 10.4806 46.4782 12.6652C46.4703 14.3134 45.8941 15.938 43.9759 15.938Z" fill="#0250C9"/>
<path d="M50.8314 18.3892H57.5327V16.0075H55.7684V10.0491C56.4804 9.55527 57.2241 9.34816 57.9125 9.33223V10.7501H61.4174V6.76728C60.9901 6.70356 60.3651 6.67966 59.9458 6.67966C58.7828 6.67966 57.0184 7.10981 55.5706 8.2728L55.3886 6.8549L55.1433 6.65576L50.7839 6.82304V9.20478L51.9707 9.22868V15.9119L50.8314 15.9995V18.3892Z" fill="#0250C9"/>
<path d="M67.284 18.5726C71.2471 18.5726 73.5174 16.2407 73.5174 12.4036C73.5174 8.85506 71.3173 6.65576 67.479 6.65576C63.4222 6.65576 61.4172 9.14362 61.4172 12.8247C61.425 16.4824 63.4534 18.5726 67.284 18.5726ZM67.4634 16.0457C66.0513 16.0457 65.3258 15.2112 65.3258 12.6142C65.3258 10.1887 66.1371 9.22161 67.4634 9.22161C68.8989 9.22161 69.6478 10.2355 69.6478 12.6142C69.6478 15.0942 68.8755 16.0457 67.4634 16.0457Z" fill="#0250C9"/>
<path d="M73.9787 22.9726H80.5975V20.6146H78.862V18.2802C79.5325 18.501 80.5581 18.6115 81.0236 18.6115C84.8103 18.6115 86.9008 15.8986 86.9008 12.1525C86.9008 9.23459 85.6544 6.65576 82.2858 6.65576C80.8816 6.65576 79.4536 7.3261 78.6095 7.9018L78.4754 6.94756L78.2309 6.7504L73.884 6.93178V9.2898L75.0674 9.31346V20.5357L73.9787 20.6225V22.9726ZM80.4634 15.938C79.7929 15.938 79.2643 15.8512 78.862 15.6225V9.74721C79.3984 9.50273 79.9112 9.345 80.5581 9.345C82.3647 9.345 82.9642 10.4806 82.9642 12.6652C82.9563 14.3134 82.3805 15.938 80.4634 15.938Z" fill="#0250C9"/>
<path d="M87.3062 18.3896H93.3176V16.041H92.1215V7.10227L91.7974 6.81165L87.2676 7.00802V9.33302L88.4251 9.35659V15.9467L87.3139 16.0331V18.3896H87.3062ZM90.2695 5.7434C91.9054 5.7434 92.2527 4.87938 92.2527 3.74829C92.2527 2.61721 91.8591 1.70605 90.2695 1.70605C88.811 1.70605 88.3094 2.39727 88.3094 3.74829C88.3094 4.87938 88.7029 5.7434 90.2695 5.7434Z" fill="#0250C9"/>
<path d="M99.8167 18.5726C101.32 18.5726 103.277 18.2684 104.51 17.8005L103.993 15.375C103.046 15.57 102.108 15.7961 100.509 15.7961C98.9179 15.7961 97.6134 15.1098 97.5657 13.2849H104.868V12.1384C104.868 9.20602 103.118 6.65576 99.4508 6.65576C95.6805 6.65576 93.501 9.14363 93.501 12.6454C93.501 16.4824 95.41 18.5726 99.8167 18.5726ZM97.5259 11.4833C97.5895 9.76754 98.3134 8.97205 99.4588 8.97205C100.652 8.97205 101.256 9.91572 101.256 11.4131L97.5259 11.4833Z" fill="#0250C9"/>
<path d="M109.741 18.5726C111.139 18.5726 112.695 17.8785 113.425 17.0344L113.716 18.4148L113.896 18.5489L118.068 18.2808V15.9617H116.85V1.37663L116.63 1.15576L111.658 1.37663V3.78249L113.08 3.80615V6.8115C112.349 6.6143 111.375 6.56697 110.927 6.56697C107.156 6.56697 105.051 9.08327 105.051 12.7828C105.043 15.7881 106.394 18.5726 109.741 18.5726ZM111.383 15.8039C109.34 15.8039 108.963 14.2894 108.963 12.2385C108.963 10.2586 109.717 8.98861 111.493 8.98861C112.184 8.98861 112.687 9.09904 113.072 9.23314V15.4016C112.585 15.6304 112.05 15.8039 111.383 15.8039Z" fill="#0250C9"/>
<path d="M121.798 18.5726C123.193 18.5726 124.796 17.8665 125.561 16.8466L125.76 18.4392H126.525L130.351 18.1724V16.0464H129.18L129.068 14.3832V10.8608C129.068 7.62856 126.86 6.65576 124.277 6.65576C121.918 6.65576 120.093 6.98526 118.761 7.49519L119.527 10.0841C120.762 9.66046 122.117 9.37803 123.377 9.37803C124.612 9.37803 125.226 9.86443 125.226 10.8215V11.5511C121.918 11.6139 118.251 12.1944 118.251 15.2305C118.243 17.2232 119.343 18.5726 121.798 18.5726ZM123.552 16.1798C122.835 16.1798 122.133 15.8895 122.133 14.8932C122.133 13.8105 123.193 13.2771 125.218 13.2771V15.4894C124.859 15.866 124.23 16.1798 123.552 16.1798Z" fill="#0250C9"/>
<path d="M135.107 18.5726C136.525 18.5726 138.103 17.8785 138.843 17.0344L139.138 18.4148L139.321 18.5489L143.551 18.2808V15.9617H142.317V1.37663L142.094 1.15576L137.051 1.37663V3.78249L138.493 3.80615V6.8115C137.752 6.6143 136.764 6.56697 136.31 6.56697C132.486 6.56697 130.351 9.08327 130.351 12.7828C130.336 15.7881 131.706 18.5726 135.107 18.5726ZM136.772 15.8039C134.701 15.8039 134.319 14.2894 134.319 12.2385C134.319 10.2586 135.083 8.98861 136.884 8.98861C137.585 8.98861 138.095 9.09904 138.477 9.23314V15.4016C137.983 15.6304 137.441 15.8039 136.772 15.8039Z" fill="#0250C9"/>
<path d="M149.762 18.5726C151.242 18.5726 153.169 18.2684 154.383 17.8005L153.873 15.375C152.942 15.57 152.017 15.7961 150.443 15.7961C148.869 15.7961 147.593 15.1098 147.546 13.2849H154.735V12.1384C154.735 9.20602 153.012 6.65576 149.41 6.65576C145.697 6.65576 143.552 9.14363 143.552 12.6454C143.552 16.4824 145.431 18.5726 149.762 18.5726ZM147.506 11.4833C147.569 9.76754 148.282 8.97205 149.41 8.97205C150.584 8.97205 151.179 9.91572 151.179 11.4131L147.506 11.4833Z" fill="#0250C9"/>
<path d="M160.121 18.5726C163.434 18.5726 165.552 17.1843 165.552 14.7823C165.552 13.4408 164.716 12.0526 161.981 11.3039L160.879 10.9998C159.778 10.7112 158.848 10.4694 158.848 9.82993C158.848 9.26061 159.535 8.94865 160.481 8.94865C160.942 8.94865 161.411 8.99545 161.918 9.14363L162.051 10.2199H165.099L165.075 7.46685C163.95 6.82734 161.723 6.65576 160.864 6.65576C156.519 6.65576 155.371 8.48071 155.371 10.3759C155.371 12.115 156.363 13.0197 158.817 13.6826L160.051 13.9946C161.043 14.2597 161.903 14.4781 161.903 15.2268C161.903 15.9287 161.02 16.1939 160.09 16.1939C159.668 16.1939 159.098 16.1471 158.746 16.0145L158.637 14.8914H155.285L155.371 17.8862C156.879 18.3542 158.285 18.5726 160.121 18.5726Z" fill="#0250C9"/>
</svg>
